<svg xmlns="http://www.w3.org/2000/svg" width="557.51" height="557.51" class="st10" color-interpolation-filters="sRGB" viewBox="0 0 418.133 418.133" xml:space="preserve"><style type="text/css">.st1,.st2{fill:#096dd9;stroke:none;stroke-linecap:round;stroke-linejoin:round;stroke-width:.72}.st2{fill:#40a9ff;fill-opacity:.5}.st3{fill:none}.st3,.st4,.st5{stroke:#fff;stroke-linecap:round;stroke-linejoin:round;stroke-width:11}.st5{fill:none;stroke:none}.st6{fill:#fff;font-family:Orator Std;font-size:1.00001em;font-weight:700}.st7{stroke-width:12}.st7,.st8,.st9{stroke:#fff;stroke-linecap:round;stroke-linejoin:round}.st8{stroke-width:16}.st9{stroke-dasharray:6,12;stroke-width:6}.st10{fill:none;fill-rule:evenodd;font-size:12;overflow:visible;stroke-linecap:square;stroke-miterlimit:3}</style><g><title>Page-1</title><g id="shape16-1" transform="translate(0.72,-0.72)"><title>Sheet.16</title><ellipse cx="208.346" cy="209.786" class="st1" rx="208.346" ry="208.346"/></g><g id="shape19-3" transform="translate(29.0665,-30.4838)"><title>Sheet.19</title><ellipse cx="178.583" cy="239.55" class="st2" rx="178.583" ry="178.583"/></g><g id="shape10-5" transform="translate(165.55,-87.7898) rotate(10)"><title>Sheet.10</title><rect width="194.641" height="161.274" x="0" y="256.859" class="st3" rx="8.504" ry="8.504"/></g><g id="shape1-7" transform="translate(186.646,-208.167) rotate(10)"><title>Sheet.1</title><path d="M0 418.13 L194.64 418.13" class="st4"/></g><g id="shape2-10" transform="translate(192.008,-217.498) rotate(10)"><title>Sheet.2</title><desc>n n n</desc><rect width="65.666" height="19.619" x="0" y="398.514" class="st5" rx="8.504" ry="8.504"/><text x="14.01" y="411.92" class="st6">n n n</text></g><g id="shape8-13" transform="translate(-23.379,-273.602) rotate(-17.4769)"><title>Sheet.8</title><path d="M0 418.13 L201.66 418.13" class="st7"/></g><g id="shape9-16" transform="translate(356.741,-294.49) rotate(30.9638)"><title>Sheet.9</title><path d="M0 418.13 L129.71 418.13" class="st8"/></g><g id="shape11-19" transform="translate(673.75,136.352) rotate(90)"><title>Sheet.11</title><path d="M0 418.13 L48.66 418.13" class="st9"/></g><g id="shape12-22" transform="translate(713.628,71.0079) rotate(90)"><title>Sheet.12</title><path d="M0 418.13 L122.35 418.13" class="st9"/></g><g id="shape13-25" transform="translate(521.406,124.89) rotate(90)"><title>Sheet.13</title><path d="M0 418.13 L119.21 418.13" class="st9"/></g><g id="shape14-28" transform="translate(557.504,73.284) rotate(90)"><title>Sheet.14</title><path d="M0 418.13 L93.65 418.13" class="st9"/></g><g id="shape3-31" transform="translate(192.184,-114.426) rotate(10)"><title>Sheet.3</title><rect width="68.884" height="64.436" x="0" y="353.696" class="st3" rx="8.504" ry="8.504"/></g><g id="shape4-33" transform="translate(298.21,-155.408) rotate(10)"><title>Sheet.4</title><path d="M0 418.13 L43.18 418.13" class="st4"/></g><g id="shape5-36" transform="translate(292.541,-128.068) rotate(10)"><title>Sheet.5</title><path d="M0 418.13 L43.18 418.13" class="st4"/></g><g id="shape6-39" transform="translate(286.871,-98.7154) rotate(10)"><title>Sheet.6</title><path d="M0 418.13 L43.18 418.13" class="st4"/></g></g></svg>